<svg xmlns="http://www.w3.org/2000/svg" width="1275.8" height="1268.0" viewBox="105 874 1275.8 1268.0">
  <defs>
    <linearGradient id="bg" x1="0" y1="0" x2="0" y2="1">
      <stop offset="0%" stop-color="#d44d12"/>
      <stop offset="55%" stop-color="#c94a12"/>
      <stop offset="100%" stop-color="#a53a10"/>
    </linearGradient>
    <radialGradient id="warmGlow" cx="50%" cy="45%" r="65%">
      <stop offset="0%" stop-color="#ffb347" stop-opacity="0.18"/>
      <stop offset="45%" stop-color="#ff9b2f" stop-opacity="0.05"/>
      <stop offset="100%" stop-color="#000000" stop-opacity="0"/>
    </radialGradient>
    <filter id="softGlow" x="-80%" y="-80%" width="260%" height="260%">
      <feGaussianBlur stdDeviation="10" result="b"/>
      <feMerge><feMergeNode in="b"/><feMergeNode in="SourceGraphic"/></feMerge>
    </filter>
    <filter id="pathGlow" x="-120%" y="-120%" width="340%" height="340%">
      <feGaussianBlur stdDeviation="18" result="b"/>
      <feColorMatrix in="b" type="matrix"
                     values="1 0 0 0 0
                0 1 0 0 0.3
                0 0 1 0 0
                0 0 0 1 0"/>
      <feMerge><feMergeNode in="b"/><feMergeNode in="SourceGraphic"/></feMerge>
    </filter>
    <style>
      .title { font-family: Montserrat, Arial, sans-serif; font-weight: 800; letter-spacing: 1px; fill: #fffaf5; }
      .subtitle { font-family: Montserrat, Arial, sans-serif; font-weight: 600; letter-spacing: 6px; fill: #f8ddb8; }
      .author { font-family: Montserrat, Arial, sans-serif; font-weight: 500; letter-spacing: 8px; fill: #f4d1a5; }
      .mesh { fill: none; stroke: #f0a54a; stroke-width: 3; opacity: 0.88; }
      .stub { stroke: #f0a54a; stroke-width: 3; stroke-linecap: round; opacity: 0.85; fill: none; }
      .dot { fill: #f0a54a; opacity: 0.95; }
      .pathhex { fill: none; stroke: #fff6dc; stroke-width: 6; filter: url(#pathGlow); }
      .pathfill { fill: #daa520; opacity: 0.45; filter: url(#pathGlow); }
    </style>
  </defs>

  <!-- subtle speckle -->
  <g opacity="0.05" fill="#fff3e0">
    <circle cx="140" cy="220" r="1.1"/>
    <circle cx="310" cy="180" r="0.9"/>
    <circle cx="520" cy="260" r="1.2"/>
    <circle cx="720" cy="140" r="1.0"/>
    <circle cx="1040" cy="210" r="1.3"/>
    <circle cx="1290" cy="160" r="1.0"/>
    <circle cx="1480" cy="300" r="1.2"/>
    <circle cx="240" cy="760" r="1.1"/>
    <circle cx="1380" cy="980" r="1.0"/>
    <circle cx="220" cy="1420" r="1.2"/>
    <circle cx="1320" cy="1710" r="1.0"/>
    <circle cx="460" cy="2220" r="1.2"/>
    <circle cx="1160" cy="2360" r="1.1"/>
  </g>

  <!-- mesh -->
  <g id="mesh">
    <polygon class="mesh" points="225.0,874.0 270.0,900.0 270.0,952.0 225.0,978.0 180.0,952.0 180.0,900.0"/>
    <polygon class="mesh" points="315.1,874.0 360.1,900.0 360.1,952.0 315.1,978.0 270.1,952.0 270.1,900.0"/>
    <polygon class="mesh" points="405.1,874.0 450.1,900.0 450.1,952.0 405.1,978.0 360.1,952.0 360.1,900.0"/>
    <polygon class="mesh" points="495.2,874.0 540.2,900.0 540.2,952.0 495.2,978.0 450.2,952.0 450.2,900.0"/>
    <polygon class="mesh" points="585.3,874.0 630.3,900.0 630.3,952.0 585.3,978.0 540.3,952.0 540.3,900.0"/>
    <polygon class="mesh" points="675.3,874.0 720.3,900.0 720.3,952.0 675.3,978.0 630.3,952.0 630.3,900.0"/>
    <polygon class="mesh" points="765.4,874.0 810.4,900.0 810.4,952.0 765.4,978.0 720.4,952.0 720.4,900.0"/>
    <polygon class="mesh" points="855.5,874.0 900.5,900.0 900.5,952.0 855.5,978.0 810.5,952.0 810.5,900.0"/>
    <polygon class="mesh" points="945.5,874.0 990.5,900.0 990.5,952.0 945.5,978.0 900.5,952.0 900.5,900.0"/>
    <polygon class="mesh" points="1035.6,874.0 1080.6,900.0 1080.6,952.0 1035.6,978.0 990.6,952.0 990.6,900.0"/>
    <polygon class="mesh" points="1125.7,874.0 1170.7,900.0 1170.7,952.0 1125.7,978.0 1080.7,952.0 1080.7,900.0"/>
    <polygon class="pathhex" points="1215.7,874.0 1260.7,900.0 1260.7,952.0 1215.7,978.0 1170.7,952.0 1170.7,900.0"/>
    <polygon class="pathfill" points="1215.7,874.0 1260.7,900.0 1260.7,952.0 1215.7,978.0 1170.7,952.0 1170.7,900.0"/>

    <polygon class="mesh" points="270.1,952.0 315.1,978.0 315.1,1030.0 270.1,1056.0 225.1,1030.0 225.1,978.0"/>
    <polygon class="mesh" points="360.1,952.0 405.1,978.0 405.1,1030.0 360.1,1056.0 315.1,1030.0 315.1,978.0"/>
    <polygon class="mesh" points="450.2,952.0 495.2,978.0 495.2,1030.0 450.2,1056.0 405.2,1030.0 405.2,978.0"/>
    <polygon class="mesh" points="540.3,952.0 585.3,978.0 585.3,1030.0 540.3,1056.0 495.3,1030.0 495.3,978.0"/>
    <polygon class="mesh" points="630.3,952.0 675.3,978.0 675.3,1030.0 630.3,1056.0 585.3,1030.0 585.3,978.0"/>
    <polygon class="mesh" points="720.4,952.0 765.4,978.0 765.4,1030.0 720.4,1056.0 675.4,1030.0 675.4,978.0"/>
    <polygon class="mesh" points="810.5,952.0 855.5,978.0 855.5,1030.0 810.5,1056.0 765.5,1030.0 765.5,978.0"/>
    <polygon class="mesh" points="900.5,952.0 945.5,978.0 945.5,1030.0 900.5,1056.0 855.5,1030.0 855.5,978.0"/>
    <polygon class="mesh" points="990.6,952.0 1035.6,978.0 1035.6,1030.0 990.6,1056.0 945.6,1030.0 945.6,978.0"/>
    <polygon class="mesh" points="1080.7,952.0 1125.7,978.0 1125.7,1030.0 1080.7,1056.0 1035.7,1030.0 1035.7,978.0"/>
    <polygon class="pathhex" points="1170.7,952.0 1215.7,978.0 1215.7,1030.0 1170.7,1056.0 1125.7,1030.0 1125.7,978.0"/>
    <polygon class="pathhex" points="1260.8,952.0 1305.8,978.0 1305.8,1030.0 1260.8,1056.0 1215.8,1030.0 1215.8,978.0"/>
    <polygon class="pathfill" points="1170.7,952.0 1215.7,978.0 1215.7,1030.0 1170.7,1056.0 1125.7,1030.0 1125.7,978.0"/>
    <polygon class="pathfill" points="1260.8,952.0 1305.8,978.0 1305.8,1030.0 1260.8,1056.0 1215.8,1030.0 1215.8,978.0"/>

    <polygon class="mesh" points="225.0,1030.0 270.0,1056.0 270.0,1108.0 225.0,1134.0 180.0,1108.0 180.0,1056.0"/>
    <polygon class="mesh" points="315.1,1030.0 360.1,1056.0 360.1,1108.0 315.1,1134.0 270.1,1108.0 270.1,1056.0"/>
    <polygon class="mesh" points="405.1,1030.0 450.1,1056.0 450.1,1108.0 405.1,1134.0 360.1,1108.0 360.1,1056.0"/>
    <polygon class="mesh" points="495.2,1030.0 540.2,1056.0 540.2,1108.0 495.2,1134.0 450.2,1108.0 450.2,1056.0"/>
    <polygon class="mesh" points="585.3,1030.0 630.3,1056.0 630.3,1108.0 585.3,1134.0 540.3,1108.0 540.3,1056.0"/>
    <polygon class="mesh" points="675.3,1030.0 720.3,1056.0 720.3,1108.0 675.3,1134.0 630.3,1108.0 630.3,1056.0"/>
    <polygon class="mesh" points="765.4,1030.0 810.4,1056.0 810.4,1108.0 765.4,1134.0 720.4,1108.0 720.4,1056.0"/>
    <polygon class="mesh" points="855.5,1030.0 900.5,1056.0 900.5,1108.0 855.5,1134.0 810.5,1108.0 810.5,1056.0"/>
    <polygon class="mesh" points="945.5,1030.0 990.5,1056.0 990.5,1108.0 945.5,1134.0 900.5,1108.0 900.5,1056.0"/>
    <polygon class="mesh" points="1035.6,1030.0 1080.6,1056.0 1080.6,1108.0 1035.6,1134.0 990.6,1108.0 990.6,1056.0"/>
    <polygon class="pathhex" points="1125.7,1030.0 1170.7,1056.0 1170.7,1108.0 1125.7,1134.0 1080.7,1108.0 1080.7,1056.0"/>
    <polygon class="pathhex" points="1215.7,1030.0 1260.7,1056.0 1260.7,1108.0 1215.7,1134.0 1170.7,1108.0 1170.7,1056.0"/>
    <polygon class="pathfill" points="1125.7,1030.0 1170.7,1056.0 1170.7,1108.0 1125.7,1134.0 1080.7,1108.0 1080.7,1056.0"/>
    <polygon class="pathfill" points="1215.7,1030.0 1260.7,1056.0 1260.7,1108.0 1215.7,1134.0 1170.7,1108.0 1170.7,1056.0"/>

    <polygon class="mesh" points="270.1,1108.0 315.1,1134.0 315.1,1186.0 270.1,1212.0 225.1,1186.0 225.1,1134.0"/>
    <polygon class="mesh" points="360.1,1108.0 405.1,1134.0 405.1,1186.0 360.1,1212.0 315.1,1186.0 315.1,1134.0"/>
    <polygon class="mesh" points="450.2,1108.0 495.2,1134.0 495.2,1186.0 450.2,1212.0 405.2,1186.0 405.2,1134.0"/>
    <polygon class="mesh" points="540.3,1108.0 585.3,1134.0 585.3,1186.0 540.3,1212.0 495.3,1186.0 495.3,1134.0"/>
    <polygon class="mesh" points="630.3,1108.0 675.3,1134.0 675.3,1186.0 630.3,1212.0 585.3,1186.0 585.3,1134.0"/>
    <polygon class="mesh" points="720.4,1108.0 765.4,1134.0 765.4,1186.0 720.4,1212.0 675.4,1186.0 675.4,1134.0"/>
    <polygon class="mesh" points="810.5,1108.0 855.5,1134.0 855.5,1186.0 810.5,1212.0 765.5,1186.0 765.5,1134.0"/>
    <polygon class="mesh" points="900.5,1108.0 945.5,1134.0 945.5,1186.0 900.5,1212.0 855.5,1186.0 855.5,1134.0"/>
    <polygon class="mesh" points="990.6,1108.0 1035.6,1134.0 1035.6,1186.0 990.6,1212.0 945.6,1186.0 945.6,1134.0"/>
    <polygon class="pathhex" points="1080.7,1108.0 1125.7,1134.0 1125.7,1186.0 1080.7,1212.0 1035.7,1186.0 1035.7,1134.0"/>
    <polygon class="pathfill" points="1080.7,1108.0 1125.7,1134.0 1125.7,1186.0 1080.7,1212.0 1035.7,1186.0 1035.7,1134.0"/>
    <polygon class="mesh" points="1170.7,1108.0 1215.7,1134.0 1215.7,1186.0 1170.7,1212.0 1125.7,1186.0 1125.7,1134.0"/>
    <polygon class="mesh" points="1260.8,1108.0 1305.8,1134.0 1305.8,1186.0 1260.8,1212.0 1215.8,1186.0 1215.8,1134.0"/>

    <polygon class="mesh" points="225.0,1186.0 270.0,1212.0 270.0,1264.0 225.0,1290.0 180.0,1264.0 180.0,1212.0"/>
    <polygon class="mesh" points="315.1,1186.0 360.1,1212.0 360.1,1264.0 315.1,1290.0 270.1,1264.0 270.1,1212.0"/>
    <polygon class="mesh" points="405.1,1186.0 450.1,1212.0 450.1,1264.0 405.1,1290.0 360.1,1264.0 360.1,1212.0"/>
    <polygon class="mesh" points="495.2,1186.0 540.2,1212.0 540.2,1264.0 495.2,1290.0 450.2,1264.0 450.2,1212.0"/>
    <polygon class="mesh" points="585.3,1186.0 630.3,1212.0 630.3,1264.0 585.3,1290.0 540.3,1264.0 540.3,1212.0"/>
    <polygon class="mesh" points="675.3,1186.0 720.3,1212.0 720.3,1264.0 675.3,1290.0 630.3,1264.0 630.3,1212.0"/>
    <polygon class="mesh" points="765.4,1186.0 810.4,1212.0 810.4,1264.0 765.4,1290.0 720.4,1264.0 720.4,1212.0"/>
    <polygon class="mesh" points="855.5,1186.0 900.5,1212.0 900.5,1264.0 855.5,1290.0 810.5,1264.0 810.5,1212.0"/>
    <polygon class="pathhex" points="945.5,1186.0 990.5,1212.0 990.5,1264.0 945.5,1290.0 900.5,1264.0 900.5,1212.0"/>
    <polygon class="pathhex" points="1035.6,1186.0 1080.6,1212.0 1080.6,1264.0 1035.6,1290.0 990.6,1264.0 990.6,1212.0"/>
    <polygon class="pathfill" points="945.5,1186.0 990.5,1212.0 990.5,1264.0 945.5,1290.0 900.5,1264.0 900.5,1212.0"/>
    <polygon class="pathfill" points="1035.6,1186.0 1080.6,1212.0 1080.6,1264.0 1035.6,1290.0 990.6,1264.0 990.6,1212.0"/>
    <polygon class="mesh" points="1125.7,1186.0 1170.7,1212.0 1170.7,1264.0 1125.7,1290.0 1080.7,1264.0 1080.7,1212.0"/>
    <polygon class="mesh" points="1215.7,1186.0 1260.7,1212.0 1260.7,1264.0 1215.7,1290.0 1170.7,1264.0 1170.7,1212.0"/>

    <polygon class="mesh" points="270.1,1264.0 315.1,1290.0 315.1,1342.0 270.1,1368.0 225.1,1342.0 225.1,1290.0"/>
    <polygon class="mesh" points="360.1,1264.0 405.1,1290.0 405.1,1342.0 360.1,1368.0 315.1,1342.0 315.1,1290.0"/>
    <polygon class="mesh" points="450.2,1264.0 495.2,1290.0 495.2,1342.0 450.2,1368.0 405.2,1342.0 405.2,1290.0"/>
    <polygon class="mesh" points="540.3,1264.0 585.3,1290.0 585.3,1342.0 540.3,1368.0 495.3,1342.0 495.3,1290.0"/>
    <polygon class="mesh" points="630.3,1264.0 675.3,1290.0 675.3,1342.0 630.3,1368.0 585.3,1342.0 585.3,1290.0"/>
    <polygon class="mesh" points="720.4,1264.0 765.4,1290.0 765.4,1342.0 720.4,1368.0 675.4,1342.0 675.4,1290.0"/>
    <polygon class="mesh" points="810.5,1264.0 855.5,1290.0 855.5,1342.0 810.5,1368.0 765.5,1342.0 765.5,1290.0"/>
    <polygon class="pathhex" points="900.5,1264.0 945.5,1290.0 945.5,1342.0 900.5,1368.0 855.5,1342.0 855.5,1290.0"/>
    <polygon class="pathfill" points="900.5,1264.0 945.5,1290.0 945.5,1342.0 900.5,1368.0 855.5,1342.0 855.5,1290.0"/>
    <polygon class="mesh" points="990.6,1264.0 1035.6,1290.0 1035.6,1342.0 990.6,1368.0 945.6,1342.0 945.6,1290.0"/>
    <polygon class="mesh" points="1080.7,1264.0 1125.7,1290.0 1125.7,1342.0 1080.7,1368.0 1035.7,1342.0 1035.7,1290.0"/>
    <polygon class="mesh" points="1170.7,1264.0 1215.7,1290.0 1215.7,1342.0 1170.7,1368.0 1125.7,1342.0 1125.7,1290.0"/>
    <polygon class="mesh" points="1260.8,1264.0 1305.8,1290.0 1305.8,1342.0 1260.8,1368.0 1215.8,1342.0 1215.8,1290.0"/>

    <polygon class="mesh" points="225.0,1342.0 270.0,1368.0 270.0,1420.0 225.0,1446.0 180.0,1420.0 180.0,1368.0"/>
    <polygon class="mesh" points="315.1,1342.0 360.1,1368.0 360.1,1420.0 315.1,1446.0 270.1,1420.0 270.1,1368.0"/>
    <polygon class="mesh" points="405.1,1342.0 450.1,1368.0 450.1,1420.0 405.1,1446.0 360.1,1420.0 360.1,1368.0"/>
    <polygon class="mesh" points="495.2,1342.0 540.2,1368.0 540.2,1420.0 495.2,1446.0 450.2,1420.0 450.2,1368.0"/>
    <polygon class="mesh" points="585.3,1342.0 630.3,1368.0 630.3,1420.0 585.3,1446.0 540.3,1420.0 540.3,1368.0"/>
    <polygon class="mesh" points="675.3,1342.0 720.3,1368.0 720.3,1420.0 675.3,1446.0 630.3,1420.0 630.3,1368.0"/>
    <polygon class="mesh" points="765.4,1342.0 810.4,1368.0 810.4,1420.0 765.4,1446.0 720.4,1420.0 720.4,1368.0"/>
    <polygon class="pathhex" points="855.5,1342.0 900.5,1368.0 900.5,1420.0 855.5,1446.0 810.5,1420.0 810.5,1368.0"/>
    <polygon class="pathfill" points="855.5,1342.0 900.5,1368.0 900.5,1420.0 855.5,1446.0 810.5,1420.0 810.5,1368.0"/>
    <polygon class="mesh" points="945.5,1342.0 990.5,1368.0 990.5,1420.0 945.5,1446.0 900.5,1420.0 900.5,1368.0"/>
    <polygon class="mesh" points="1035.6,1342.0 1080.6,1368.0 1080.6,1420.0 1035.6,1446.0 990.6,1420.0 990.6,1368.0"/>
    <polygon class="mesh" points="1125.7,1342.0 1170.7,1368.0 1170.7,1420.0 1125.7,1446.0 1080.7,1420.0 1080.7,1368.0"/>
    <polygon class="mesh" points="1215.7,1342.0 1260.7,1368.0 1260.7,1420.0 1215.7,1446.0 1170.7,1420.0 1170.7,1368.0"/>

    <polygon class="mesh" points="270.1,1420.0 315.1,1446.0 315.1,1498.0 270.1,1524.0 225.1,1498.0 225.1,1446.0"/>
    <polygon class="mesh" points="360.1,1420.0 405.1,1446.0 405.1,1498.0 360.1,1524.0 315.1,1498.0 315.1,1446.0"/>
    <polygon class="mesh" points="450.2,1420.0 495.2,1446.0 495.2,1498.0 450.2,1524.0 405.2,1498.0 405.2,1446.0"/>
    <polygon class="mesh" points="540.3,1420.0 585.3,1446.0 585.3,1498.0 540.3,1524.0 495.3,1498.0 495.3,1446.0"/>
    <polygon class="mesh" points="630.3,1420.0 675.3,1446.0 675.3,1498.0 630.3,1524.0 585.3,1498.0 585.3,1446.0"/>
    <polygon class="pathhex" points="720.4,1420.0 765.4,1446.0 765.4,1498.0 720.4,1524.0 675.4,1498.0 675.4,1446.0"/>
    <polygon class="pathhex" points="810.5,1420.0 855.5,1446.0 855.5,1498.0 810.5,1524.0 765.5,1498.0 765.5,1446.0"/>
    <polygon class="pathfill" points="720.4,1420.0 765.4,1446.0 765.4,1498.0 720.4,1524.0 675.4,1498.0 675.4,1446.0"/>
    <polygon class="pathfill" points="810.5,1420.0 855.5,1446.0 855.5,1498.0 810.5,1524.0 765.5,1498.0 765.5,1446.0"/>
    <polygon class="mesh" points="900.5,1420.0 945.5,1446.0 945.5,1498.0 900.5,1524.0 855.5,1498.0 855.5,1446.0"/>
    <polygon class="mesh" points="990.6,1420.0 1035.6,1446.0 1035.6,1498.0 990.6,1524.0 945.6,1498.0 945.6,1446.0"/>
    <polygon class="mesh" points="1080.7,1420.0 1125.7,1446.0 1125.7,1498.0 1080.7,1524.0 1035.7,1498.0 1035.7,1446.0"/>
    <polygon class="mesh" points="1170.7,1420.0 1215.7,1446.0 1215.7,1498.0 1170.7,1524.0 1125.7,1498.0 1125.7,1446.0"/>
    <polygon class="mesh" points="1260.8,1420.0 1305.8,1446.0 1305.8,1498.0 1260.8,1524.0 1215.8,1498.0 1215.8,1446.0"/>

    <polygon class="mesh" points="225.0,1498.0 270.0,1524.0 270.0,1576.0 225.0,1602.0 180.0,1576.0 180.0,1524.0"/>
    <polygon class="mesh" points="315.1,1498.0 360.1,1524.0 360.1,1576.0 315.1,1602.0 270.1,1576.0 270.1,1524.0"/>
    <polygon class="mesh" points="405.1,1498.0 450.1,1524.0 450.1,1576.0 405.1,1602.0 360.1,1576.0 360.1,1524.0"/>
    <polygon class="mesh" points="495.2,1498.0 540.2,1524.0 540.2,1576.0 495.2,1602.0 450.2,1576.0 450.2,1524.0"/>
    <polygon class="mesh" points="585.3,1498.0 630.3,1524.0 630.3,1576.0 585.3,1602.0 540.3,1576.0 540.3,1524.0"/>
    <polygon class="pathhex" points="675.3,1498.0 720.3,1524.0 720.3,1576.0 675.3,1602.0 630.3,1576.0 630.3,1524.0"/>
    <polygon class="pathfill" points="675.3,1498.0 720.3,1524.0 720.3,1576.0 675.3,1602.0 630.3,1576.0 630.3,1524.0"/>
    <polygon class="mesh" points="765.4,1498.0 810.4,1524.0 810.4,1576.0 765.4,1602.0 720.4,1576.0 720.4,1524.0"/>
    <polygon class="mesh" points="855.5,1498.0 900.5,1524.0 900.5,1576.0 855.5,1602.0 810.5,1576.0 810.5,1524.0"/>
    <polygon class="mesh" points="945.5,1498.0 990.5,1524.0 990.5,1576.0 945.5,1602.0 900.5,1576.0 900.5,1524.0"/>
    <polygon class="mesh" points="1035.6,1498.0 1080.6,1524.0 1080.6,1576.0 1035.6,1602.0 990.6,1576.0 990.6,1524.0"/>
    <polygon class="mesh" points="1125.7,1498.0 1170.7,1524.0 1170.7,1576.0 1125.7,1602.0 1080.7,1576.0 1080.7,1524.0"/>
    <polygon class="mesh" points="1215.7,1498.0 1260.7,1524.0 1260.7,1576.0 1215.7,1602.0 1170.7,1576.0 1170.7,1524.0"/>

    <polygon class="mesh" points="270.1,1576.0 315.1,1602.0 315.1,1654.0 270.1,1680.0 225.1,1654.0 225.1,1602.0"/>
    <polygon class="mesh" points="360.1,1576.0 405.1,1602.0 405.1,1654.0 360.1,1680.0 315.1,1654.0 315.1,1602.0"/>
    <polygon class="mesh" points="450.2,1576.0 495.2,1602.0 495.2,1654.0 450.2,1680.0 405.2,1654.0 405.2,1602.0"/>
    <polygon class="mesh" points="540.3,1576.0 585.3,1602.0 585.3,1654.0 540.3,1680.0 495.3,1654.0 495.3,1602.0"/>
    <polygon class="pathhex" points="630.3,1576.0 675.3,1602.0 675.3,1654.0 630.3,1680.0 585.3,1654.0 585.3,1602.0"/>
    <polygon class="pathfill" points="630.3,1576.0 675.3,1602.0 675.3,1654.0 630.3,1680.0 585.3,1654.0 585.3,1602.0"/>
    <polygon class="mesh" points="720.4,1576.0 765.4,1602.0 765.4,1654.0 720.4,1680.0 675.4,1654.0 675.4,1602.0"/>
    <polygon class="mesh" points="810.5,1576.0 855.5,1602.0 855.5,1654.0 810.5,1680.0 765.5,1654.0 765.5,1602.0"/>
    <polygon class="mesh" points="900.5,1576.0 945.5,1602.0 945.5,1654.0 900.5,1680.0 855.5,1654.0 855.5,1602.0"/>
    <polygon class="mesh" points="990.6,1576.0 1035.6,1602.0 1035.6,1654.0 990.6,1680.0 945.6,1654.0 945.6,1602.0"/>
    <polygon class="mesh" points="1080.7,1576.0 1125.7,1602.0 1125.7,1654.0 1080.7,1680.0 1035.7,1654.0 1035.7,1602.0"/>
    <polygon class="mesh" points="1170.7,1576.0 1215.7,1602.0 1215.7,1654.0 1170.7,1680.0 1125.7,1654.0 1125.7,1602.0"/>
    <polygon class="mesh" points="1260.8,1576.0 1305.8,1602.0 1305.8,1654.0 1260.8,1680.0 1215.8,1654.0 1215.8,1602.0"/>

    <polygon class="mesh" points="225.0,1654.0 270.0,1680.0 270.0,1732.0 225.0,1758.0 180.0,1732.0 180.0,1680.0"/>
    <polygon class="mesh" points="315.1,1654.0 360.1,1680.0 360.1,1732.0 315.1,1758.0 270.1,1732.0 270.1,1680.0"/>
    <polygon class="mesh" points="405.1,1654.0 450.1,1680.0 450.1,1732.0 405.1,1758.0 360.1,1732.0 360.1,1680.0"/>
    <polygon class="pathhex" points="495.2,1654.0 540.2,1680.0 540.2,1732.0 495.2,1758.0 450.2,1732.0 450.2,1680.0"/>
    <polygon class="pathhex" points="585.3,1654.0 630.3,1680.0 630.3,1732.0 585.3,1758.0 540.3,1732.0 540.3,1680.0"/>
    <polygon class="pathfill" points="495.2,1654.0 540.2,1680.0 540.2,1732.0 495.2,1758.0 450.2,1732.0 450.2,1680.0"/>
    <polygon class="pathfill" points="585.3,1654.0 630.3,1680.0 630.3,1732.0 585.3,1758.0 540.3,1732.0 540.3,1680.0"/>
    <polygon class="mesh" points="675.3,1654.0 720.3,1680.0 720.3,1732.0 675.3,1758.0 630.3,1732.0 630.3,1680.0"/>
    <polygon class="mesh" points="765.4,1654.0 810.4,1680.0 810.4,1732.0 765.4,1758.0 720.4,1732.0 720.4,1680.0"/>
    <polygon class="mesh" points="855.5,1654.0 900.5,1680.0 900.5,1732.0 855.5,1758.0 810.5,1732.0 810.5,1680.0"/>
    <polygon class="mesh" points="945.5,1654.0 990.5,1680.0 990.5,1732.0 945.5,1758.0 900.5,1732.0 900.5,1680.0"/>
    <polygon class="mesh" points="1035.6,1654.0 1080.6,1680.0 1080.6,1732.0 1035.6,1758.0 990.6,1732.0 990.6,1680.0"/>
    <polygon class="mesh" points="1125.7,1654.0 1170.7,1680.0 1170.7,1732.0 1125.7,1758.0 1080.7,1732.0 1080.7,1680.0"/>
    <polygon class="mesh" points="1215.7,1654.0 1260.7,1680.0 1260.7,1732.0 1215.7,1758.0 1170.7,1732.0 1170.7,1680.0"/>

    <polygon class="mesh" points="270.1,1732.0 315.1,1758.0 315.1,1810.0 270.1,1836.0 225.1,1810.0 225.1,1758.0"/>
    <polygon class="pathhex" points="360.1,1732.0 405.1,1758.0 405.1,1810.0 360.1,1836.0 315.1,1810.0 315.1,1758.0"/>
    <polygon class="pathhex" points="450.2,1732.0 495.2,1758.0 495.2,1810.0 450.2,1836.0 405.2,1810.0 405.2,1758.0"/>
    <polygon class="pathfill" points="360.1,1732.0 405.1,1758.0 405.1,1810.0 360.1,1836.0 315.1,1810.0 315.1,1758.0"/>
    <polygon class="pathfill" points="450.2,1732.0 495.2,1758.0 495.2,1810.0 450.2,1836.0 405.2,1810.0 405.2,1758.0"/>
    <polygon class="mesh" points="540.3,1732.0 585.3,1758.0 585.3,1810.0 540.3,1836.0 495.3,1810.0 495.3,1758.0"/>
    <polygon class="mesh" points="630.3,1732.0 675.3,1758.0 675.3,1810.0 630.3,1836.0 585.3,1810.0 585.3,1758.0"/>
    <polygon class="mesh" points="720.4,1732.0 765.4,1758.0 765.4,1810.0 720.4,1836.0 675.4,1810.0 675.4,1758.0"/>
    <polygon class="mesh" points="810.5,1732.0 855.5,1758.0 855.5,1810.0 810.5,1836.0 765.5,1810.0 765.5,1758.0"/>
    <polygon class="mesh" points="900.5,1732.0 945.5,1758.0 945.5,1810.0 900.5,1836.0 855.5,1810.0 855.5,1758.0"/>
    <polygon class="mesh" points="990.6,1732.0 1035.6,1758.0 1035.6,1810.0 990.6,1836.0 945.6,1810.0 945.6,1758.0"/>
    <polygon class="mesh" points="1080.7,1732.0 1125.7,1758.0 1125.7,1810.0 1080.7,1836.0 1035.7,1810.0 1035.7,1758.0"/>
    <polygon class="mesh" points="1170.7,1732.0 1215.7,1758.0 1215.7,1810.0 1170.7,1836.0 1125.7,1810.0 1125.7,1758.0"/>
    <polygon class="mesh" points="1260.8,1732.0 1305.8,1758.0 1305.8,1810.0 1260.8,1836.0 1215.8,1810.0 1215.8,1758.0"/>

    <polygon class="pathhex" points="225.0,1810.0 270.0,1836.0 270.0,1888.0 225.0,1914.0 180.0,1888.0 180.0,1836.0"/>
    <polygon class="pathhex" points="315.1,1810.0 360.1,1836.0 360.1,1888.0 315.1,1914.0 270.1,1888.0 270.1,1836.0"/>
    <polygon class="pathfill" points="225.0,1810.0 270.0,1836.0 270.0,1888.0 225.0,1914.0 180.0,1888.0 180.0,1836.0"/>
    <polygon class="pathfill" points="315.1,1810.0 360.1,1836.0 360.1,1888.0 315.1,1914.0 270.1,1888.0 270.1,1836.0"/>
    <polygon class="mesh" points="405.1,1810.0 450.1,1836.0 450.1,1888.0 405.1,1914.0 360.1,1888.0 360.1,1836.0"/>
    <polygon class="mesh" points="495.2,1810.0 540.2,1836.0 540.2,1888.0 495.2,1914.0 450.2,1888.0 450.2,1836.0"/>
    <polygon class="mesh" points="585.3,1810.0 630.3,1836.0 630.3,1888.0 585.3,1914.0 540.3,1888.0 540.3,1836.0"/>
    <polygon class="mesh" points="675.3,1810.0 720.3,1836.0 720.3,1888.0 675.3,1914.0 630.3,1888.0 630.3,1836.0"/>
    <polygon class="mesh" points="765.4,1810.0 810.4,1836.0 810.4,1888.0 765.4,1914.0 720.4,1888.0 720.4,1836.0"/>
    <polygon class="mesh" points="855.5,1810.0 900.5,1836.0 900.5,1888.0 855.5,1914.0 810.5,1888.0 810.5,1836.0"/>
    <polygon class="mesh" points="945.5,1810.0 990.5,1836.0 990.5,1888.0 945.5,1914.0 900.5,1888.0 900.5,1836.0"/>
    <polygon class="mesh" points="1035.6,1810.0 1080.6,1836.0 1080.6,1888.0 1035.6,1914.0 990.6,1888.0 990.6,1836.0"/>
    <polygon class="mesh" points="1125.7,1810.0 1170.7,1836.0 1170.7,1888.0 1125.7,1914.0 1080.7,1888.0 1080.7,1836.0"/>
    <polygon class="mesh" points="1215.7,1810.0 1260.7,1836.0 1260.7,1888.0 1215.7,1914.0 1170.7,1888.0 1170.7,1836.0"/>

    <polygon class="pathhex" points="270.1,1888.0 315.1,1914.0 315.1,1966.0 270.1,1992.0 225.1,1966.0 225.1,1914.0"/>
    <polygon class="pathfill" points="270.1,1888.0 315.1,1914.0 315.1,1966.0 270.1,1992.0 225.1,1966.0 225.1,1914.0"/>
    <polygon class="mesh" points="360.1,1888.0 405.1,1914.0 405.1,1966.0 360.1,1992.0 315.1,1966.0 315.1,1914.0"/>
    <polygon class="mesh" points="450.2,1888.0 495.2,1914.0 495.2,1966.0 450.2,1992.0 405.2,1966.0 405.2,1914.0"/>
    <polygon class="mesh" points="540.3,1888.0 585.3,1914.0 585.3,1966.0 540.3,1992.0 495.3,1966.0 495.3,1914.0"/>
    <polygon class="mesh" points="630.3,1888.0 675.3,1914.0 675.3,1966.0 630.3,1992.0 585.3,1966.0 585.3,1914.0"/>
    <polygon class="mesh" points="720.4,1888.0 765.4,1914.0 765.4,1966.0 720.4,1992.0 675.4,1966.0 675.4,1914.0"/>
    <polygon class="mesh" points="810.5,1888.0 855.5,1914.0 855.5,1966.0 810.5,1992.0 765.5,1966.0 765.5,1914.0"/>
    <polygon class="mesh" points="900.5,1888.0 945.5,1914.0 945.5,1966.0 900.5,1992.0 855.5,1966.0 855.5,1914.0"/>
    <polygon class="mesh" points="990.6,1888.0 1035.6,1914.0 1035.6,1966.0 990.6,1992.0 945.6,1966.0 945.6,1914.0"/>
    <polygon class="mesh" points="1080.7,1888.0 1125.7,1914.0 1125.7,1966.0 1080.7,1992.0 1035.7,1966.0 1035.7,1914.0"/>
    <polygon class="mesh" points="1170.7,1888.0 1215.7,1914.0 1215.7,1966.0 1170.7,1992.0 1125.7,1966.0 1125.7,1914.0"/>
    <polygon class="mesh" points="1260.8,1888.0 1305.8,1914.0 1305.8,1966.0 1260.8,1992.0 1215.8,1966.0 1215.8,1914.0"/>
  </g>

  <g id="path">
    <line x1="147.1" y1="2000.0" x2="221.0" y2="1909.0" stroke="#fff6de" stroke-width="5"/>
    <circle cx="137.1" cy="2010.0" r="10" fill="#fff6de" filter="url(#softGlow)"/>

    <line x1="1260.7" y1="952.0" x2="1308.0" y2="900.0" stroke="#fff6de" stroke-width="5"/>
    <circle cx="1320.0" cy="888.0" r="10" fill="#fff6de" filter="url(#softGlow)"/>
  </g>
</svg>