<?xml version="1.0" encoding="UTF-8" standalone="no"?>
<svg xmlns="http://www.w3.org/2000/svg"
     xmlns:xlink="http://www.w3.org/1999/xlink"
     width="13.054in"
     height="9.25in"
     viewBox="0 0 3916.2 2775.0"
     version="1.1">
    <title>Becoming AI-Augmented Full Cover Composition Template - adjusted</title>
    <desc>
        Full wrap SVG composition template for a 6x9 book cover, 322 pages.
        Includes back cover, spine, and front cover groups, plus image placeholder groups
        and text overlay groups for title, subtitle, author, back cover copy, and spine text.
    </desc>

    <defs>
        <style>
            .guide {
            stroke: #64748b;
            stroke-width: 2;
            stroke-dasharray: 10 10;
            opacity: 0.9;
            }
            .trim {
            stroke: #0f172a;
            stroke-width: 3;
            fill: none;
            }
            .safe {
            stroke: #94a3b8;
            stroke-width: 2;
            stroke-dasharray: 8 8;
            fill: none;
            }
            .panel-label {
            font-family: IBM Plex Sans, Arial, sans-serif;
            font-size: 28px;
            font-weight: 700;
            letter-spacing: 2px;
            fill: #0f172a;
            opacity: 0.55;
            }
            .series {
            font-family: IBM Plex Sans, Arial, sans-serif;
            font-size: 42px;
            font-weight: 500;
            letter-spacing: 6px;
            fill: #D7DEE7;
            }
            .title {
            font-family: IBM Plex Sans, Arial, sans-serif;
            font-size: 132px;
            font-weight: 800;
            letter-spacing: 1px;
            fill: #FFFFFF;
            }
            .subtitle {
            font-family: IBM Plex Sans, Arial, sans-serif;
            font-size: 72pt;
            font-weight: 600;
            letter-spacing: 0.5px;
            fill: #ffffff;
            }
            .author {
            font-family: IBM Plex Sans, Arial, sans-serif;
            font-size: 64px;
            font-weight: 500;
            letter-spacing: 0.5px;
            fill: #DCE0E6;
            }
            .back-hook {
            font-family: IBM Plex Sans, Arial, sans-serif;
            font-size: 44px;
            font-weight: 700;
            line-height: 1.2;
            fill: #FFFFFF;
            }
            .back-body {
            font-family: "Source Serif Pro", IBM Plex Sans, serif;
            font-size: 30px;
            font-weight: 400;
            fill: #F5F7FA;
            }
            .back-head {
            font-family: IBM Plex Sans, Arial, sans-serif;
            font-size: 28px;
            font-weight: 700;
            letter-spacing: 1px;
            fill: #FFFFFF;
            }
            .spine-title {
            font-family: IBM Plex Sans, Arial, sans-serif;
            font-size: 84px;
            font-weight: 700;
            letter-spacing: 1px;
            fill: #FFFFFF;
            }
            .spine-author {
            font-family: IBM Plex Sans, Arial, sans-serif;
            font-size: 42px;
            font-weight: 500;
            fill: #E5E7EB;
            }
            .pp-mark {
            font-family: IBM Plex Sans, Arial, sans-serif;
            font-size: 24px;
            font-weight: 700;
            fill: #FFFFFF;
            }
            .placeholder {
            fill: rgba(255,255,255,0.10);
            stroke: rgba(255,255,255,0.35);
            stroke-width: 3;
            stroke-dasharray: 12 10;
            }
            .placeholder-text {
            font-family: IBM Plex Sans, Arial, sans-serif;
            font-size: 30px;
            font-weight: 600;
            fill: rgba(255,255,255,0.75);
            letter-spacing: 1px;
            }
            .cls-1 {
            stroke: #003456;
            stroke-linecap: round;
            stroke-linejoin: round;
            stroke-width: 5px;
            }
            .cls-font {
            font-family: Arial, Helvetica, "Liberation Sans", "Nimbus Sans", "Noto Sans", "DejaVu Sans", sans-serif;
            font-weight: 300;
            font-size: 250px;
            fill: #ffffff;
            letter-spacing: -0.05em;
            }
            .cls-1, .cls-2, .cls-3 {
            fill: #fff;
            }
            .cls-3 {
            fill-rule: evenodd;
            }
            .cls-4 { fill: url(#grad-navy); }
            .gold-light {
            fill: #82D2F1;
            }
            .gold-medium {
            }
            .gold-medium2 {
            fill: url(#grad2);
            }
            .gold-medium3 {
            fill: url(#grad1);
            }
            .gold-dark {
            fill: #3A70AF;
            }
        </style>

        <linearGradient id="backBg" x1="0%" y1="0%" x2="0%" y2="100%">
            <stop offset="0%" stop-color="#26004D"/>
            <stop offset="50%" stop-color="#4B0082"/>
            <stop offset="100%" stop-color="#26004D"/>
        </linearGradient>

        <linearGradient id="spineBg" x1="0%" y1="0%" x2="0%" y2="100%">
            <stop offset="0%" stop-color="#26004D"/>
            <stop offset="50%" stop-color="#4B0082"/>
            <stop offset="100%" stop-color="#26004D"/>
        </linearGradient>

        <linearGradient id="grad1" gradientTransform="rotate(90)">
            <stop offset="5%" stop-color="#66B6DD" />
            <stop offset="95%" stop-color="#3B76B3" />
        </linearGradient>

        <linearGradient id="grad2" gradientTransform="rotate(90)">
            <stop offset="5%" stop-color="#3B76B3" />
            <stop offset="95%" stop-color="#66B6DD" />
        </linearGradient>

        <linearGradient id="grad-navy" x1="0%" y1="0%" x2="0%" y2="100%">
            <stop offset="0%" stop-color="#002137"/>
            <stop offset="100%" stop-color="#335A8C"/>
        </linearGradient>
    </defs>

    <!-- BACK COVER GROUP -->
    <g id="back-cover">
        <rect x="0" y="0" width="4600.0" height="2775.0" fill="url(#backBg)"/>
        <!--   <rect x="187.5" y="187.5" width="1500.0" height="2400.0" class="safe"/>
   -->
        <!-- Top positioning line -->
        <g id="back-topline">
            <text x="937.5" y="320" text-anchor="middle" class="back-head" style="font-size:24px; fill:#C8D4E3;">
                Expanding Human Capability in the Age of AI
            </text>
        </g>

        <!-- Main back cover copy -->
        <g id="back-text">
            <!-- Hook -->
            <text x="207.5" y="500" class="back-hook">AI can amplify your work.</text>
            <text x="207.5" y="560" class="back-hook">But tools alone do not create leverage.</text>
            <text x="207.5" y="620" class="back-hook">Your growth model does.</text>

            <!-- Summary -->
            <text x="207.5" y="770" class="back-body">
                <tspan x="207.5" dy="0">Becoming AI-Augmented is a practical guide for professionals</tspan>
                <tspan x="207.5" dy="42">who want to pair real expertise with AI fluency.</tspan>
                <tspan x="207.5" dy="42">Learn how to move from underleveraged execution to</tspan>
                <tspan x="207.5" dy="60">high-trust, high-impact outcomes in your daily work.</tspan>
                <tspan x="207.5" dy="60">Build systems for thinking, deciding, and communicating</tspan>
                <tspan x="207.5" dy="42">so AI expands your influence instead of diluting it.</tspan>
            </text>

            <!-- What readers get -->
            <text x="207.5" y="1175" class="back-head">INSIDE YOU'LL LEARN HOW TO:</text>
            <text x="207.5" y="1245" class="back-body">
                <tspan x="207.5" dy="0">- Assess your current AI posture by task and domain</tspan>
                <tspan x="207.5" dy="42">- Build AI experience without the AI Faker trap</tspan>
                <tspan x="207.5" dy="42">- Deepen subject matter expertise with AI learning loops</tspan>
                <tspan x="207.5" dy="42">- Strengthen communication, clarity, and decision quality</tspan>
                <tspan x="207.5" dy="42">- Develop judgment, humility, and learning velocity</tspan>
            </text>

            <!-- Audience -->
            <text x="207.5" y="1545" class="back-body">
                <tspan x="207.5" dy="0">For leaders and professionals who want to accelerate</tspan>
                <tspan x="207.5" dy="42">their careers by becoming consistently AI-augmented.</tspan>
            </text>

            <!-- Bio -->
            <text x="207.5" y="1760" class="back-head">ABOUT THE AUTHOR</text>
            <text x="207.5" y="1830" class="back-body">
                <tspan x="207.5" dy="0">Dr. Darren Pulsipher is a digital transformation leader, author,</tspan>
                <tspan x="207.5" dy="42">and host of the Embracing Digital Transformation podcast,</tspan>
                <tspan x="207.5" dy="42">reaching over 200,000 subscribers and more than one million</tspan>
                <tspan x="207.5" dy="42">monthly listeners.</tspan>
                <tspan x="207.5" dy="56">He is the creator of the AI-Augmented Operating System (AAOS),</tspan>
                <tspan x="207.5" dy="42">a framework for turning AI into reliable, scalable work.</tspan>
            </text>
        </g>

        <!-- Footer -->
        <g id="back-footer">
            <g id="paidar-press-mark" transform="translate(210,2450) scale(0.20, 0.20)">
                <defs>
                    <linearGradient id="grad1" gradientTransform="rotate(90)">
                        <stop offset="5%" stop-color="#fff60D" />
                        <stop offset="95%"  stop-color="#3B76B3" />
                    </linearGradient>
                    <linearGradient id="grad2" gradientTransform="rotate(90)">
                        <stop offset="5%"  stop-color="#3B76B3" />
                        <stop offset="95%" stop-color="#66B6DD" />
                    </linearGradient>
                    <!-- New dark-blue gradient -->
                    <linearGradient id="grad-navy" x1="0%" y1="0%" x2="0%" y2="100%">
                        <stop offset="0%"  stop-color="#000008"/>  <!-- very dark at top -->
                        <stop offset="100%" stop-color="#335A8C"/>  <!-- lighter slate-blue at bottom -->
                    </linearGradient>
                    <style>
                        .cls-1 {
                        stroke: #003456;
                        stroke-linecap: round;
                        stroke-linejoin: round;
                        stroke-width: 5px;
                        }
                        .cls-4 { fill: url(#grad-navy); }
                    </style>
                </defs>
                <!-- Generator: Adobe Illustrator 28.6.0, SVG Export Plug-In . SVG Version: 1.2.0 Build 709)  -->
                <g transform="translate(50,0)">
                    <g id="Layer_1">
                        <polygon class="st0" points="320 105 545 230 545 480 320 605 95 480 95 230 320 105"/>
                    </g>
                </g>
                <defs>
                    <style>
                        .st0 {
                        fill: #fff;
                        }
                    </style>
                </defs>
                <g transform="translate(-154,-40)">
                    <path class="cls-4" d="M523.63,500.49c-35.39-31.46-83.54-38.2-129.38-35.33l-.09-176.23c36.57-3.03,71.56-.1,104.15,16.72,9.7,5.01,18.26,10.37,25.29,18.62l.02,176.22Z"/>
                    <path class="cls-4" d="M582.48,472.64c-18.08,6.14-33.56,14.47-48.27,27.59l.06-176.47c8.04-8.31,16.44-14.13,26.45-19.04,32.25-15.82,66.22-18.73,102.8-15.89v176.05s-42.12.11-42.12.11c-13.22,1.68-25.64,3.82-38.92,7.65Z"/>
                    <path class="cls-4" d="M516.03,508.19c-3.66.24-7.58-1.48-11.3-3.2-39.91-20.5-87.83-26.01-132.73-25.03l-.09-169.56,11.66-.67.02,164.51c24.85-.67,48.29.62,71.98,5.4,22.02,5.03,42.53,13.05,60.46,28.55Z"/>
                    <path class="cls-4" d="M557.08,502.55c-5.74,3.27-11.33,5.4-16.92,6.27,11.7-10.36,24.05-17.87,38.2-23.24,31.53-11.32,61.91-11.6,95.63-11.42l-.04-163.61c3.5-.85,7.07-.75,11.2-.04l.04,169.41c-42.16-1.12-90.17,3.36-128.12,22.61Z"/>
                    <path class="cls-4" d="M694.79,488.95l-42.37,6.57c-29.33,4.54-57.68,9.1-86.22,16.53-10.69,2.78-19.44,7.69-28.43,13.63-7.09,4.68-16.17,2.01-22.85-2.34s-13.25-7.94-21.08-10.06c-25.26-6.83-50.26-11.82-76.21-15.84l-48.6-7.54c-3.16-.49-6.72.42-8.45-3.81,39.21-1.5,77.45,5.18,115.15,16.2,11.58,3.38,21.96,8.75,33.9,10.08,10.68,1.19,21.55.27,32.38.43,7.86.12,14.32-2.53,21.43-5.18,33.41-12.46,67.22-18.92,102.79-21.17,7.69-.49,24.28-.98,30.79.13.51.09-1.63,2.28-2.23,2.37Z"/>
                    <path class="cls-4" d="M361.74,479.28c0,2.29-1.33,3.86-2.28,3.79-1.41-.1-2.69-1.4-2.69-3.17l-.06-152.17c1.53-.46,3.09-.53,5.05-.21v151.77Z"/>
                    <path class="cls-4" d="M699.4,481.41c-1.15.26-2.51.24-4.18-.03v-153.02c0-1,2.84-1.79,3.29-1.23s.97,1.74.97,2.95l-.09,151.33Z"/>
                </g>
            </g>
            <text x="357.5" y="2527.5" class="back-head">PAIDAR PRESS</text>
        </g>

        <!-- Barcode Placeholder -->
        <g id="barcode-zone">
            <rect x="1162.5" y="2302.5" width="600.0" height="360.0" fill="#FFFFFF" opacity="0.95"/>
            <text x="1462.5" y="2462.5" text-anchor="middle" class="panel-label">BARCODE</text>
        </g>
    </g>

    <!-- SPINE GROUP -->
    <g id="spine">
        <rect x="1837.5" y="37.5" width="241.2" height="2700.0" fill="url(#spineBg)"/>
        <!--
                <rect x="1856.25" y="187.5" width="203.7" height="2400.0" class="safe"/>
        -->

        <text x="700" y="2230" text-anchor="middle" class="spine-title"
              transform="rotate(90 1958.1 2200)">
            BECOMING AI-AUGMENTED
        </text>

        <text x="1550" y="2480" text-anchor="middle" class="spine-author"
              transform="rotate(90 1958.1 2460)">
            DR. DARREN PULSIPHER
        </text>
        <g id="spine-text" transform="translate(1886.925,2430) scale(0.20, 0.20)">
            <defs>
                <linearGradient id="grad1" gradientTransform="rotate(90)">
                    <stop offset="5%" stop-color="#fff60D" />
                    <stop offset="95%"  stop-color="#3B76B3" />
                </linearGradient>
                <linearGradient id="grad2" gradientTransform="rotate(90)">
                    <stop offset="5%"  stop-color="#3B76B3" />
                    <stop offset="95%" stop-color="#66B6DD" />
                </linearGradient>
                <!-- New dark-blue gradient -->
                <linearGradient id="grad-navy" x1="0%" y1="0%" x2="0%" y2="100%">
                    <stop offset="0%"  stop-color="#000008"/>  <!-- very dark at top -->
                    <stop offset="100%" stop-color="#335A8C"/>  <!-- lighter slate-blue at bottom -->
                </linearGradient>
                <style>
                    .cls-1 {
                    stroke: #003456;
                    stroke-linecap: round;
                    stroke-linejoin: round;
                    stroke-width: 5px;
                    }
                    .cls-4 { fill: url(#grad-navy); }
                </style>
            </defs>
            <!-- Generator: Adobe Illustrator 28.6.0, SVG Export Plug-In . SVG Version: 1.2.0 Build 709)  -->
            <g transform="translate(50,0)">
                <g id="Layer_1">
                    <polygon class="st0" points="320 105 545 230 545 480 320 605 95 480 95 230 320 105"/>
                </g>
            </g>
            <defs>
                <style>
                    .st0 {
                    fill: #fff;
                    }
                </style>
            </defs>
            <g transform="translate(-154,-40)">
                <path class="cls-4" d="M523.63,500.49c-35.39-31.46-83.54-38.2-129.38-35.33l-.09-176.23c36.57-3.03,71.56-.1,104.15,16.72,9.7,5.01,18.26,10.37,25.29,18.62l.02,176.22Z"/>
                <path class="cls-4" d="M582.48,472.64c-18.08,6.14-33.56,14.47-48.27,27.59l.06-176.47c8.04-8.31,16.44-14.13,26.45-19.04,32.25-15.82,66.22-18.73,102.8-15.89v176.05s-42.12.11-42.12.11c-13.22,1.68-25.64,3.82-38.92,7.65Z"/>
                <path class="cls-4" d="M516.03,508.19c-3.66.24-7.58-1.48-11.3-3.2-39.91-20.5-87.83-26.01-132.73-25.03l-.09-169.56,11.66-.67.02,164.51c24.85-.67,48.29.62,71.98,5.4,22.02,5.03,42.53,13.05,60.46,28.55Z"/>
                <path class="cls-4" d="M557.08,502.55c-5.74,3.27-11.33,5.4-16.92,6.27,11.7-10.36,24.05-17.87,38.2-23.24,31.53-11.32,61.91-11.6,95.63-11.42l-.04-163.61c3.5-.85,7.07-.75,11.2-.04l.04,169.41c-42.16-1.12-90.17,3.36-128.12,22.61Z"/>
                <path class="cls-4" d="M694.79,488.95l-42.37,6.57c-29.33,4.54-57.68,9.1-86.22,16.53-10.69,2.78-19.44,7.69-28.43,13.63-7.09,4.68-16.17,2.01-22.85-2.34s-13.25-7.94-21.08-10.06c-25.26-6.83-50.26-11.82-76.21-15.84l-48.6-7.54c-3.16-.49-6.72.42-8.45-3.81,39.21-1.5,77.45,5.18,115.15,16.2,11.58,3.38,21.96,8.75,33.9,10.08,10.68,1.19,21.55.27,32.38.43,7.86.12,14.32-2.53,21.43-5.18,33.41-12.46,67.22-18.92,102.79-21.17,7.69-.49,24.28-.98,30.79.13.51.09-1.63,2.28-2.23,2.37Z"/>
                <path class="cls-4" d="M361.74,479.28c0,2.29-1.33,3.86-2.28,3.79-1.41-.1-2.69-1.4-2.69-3.17l-.06-152.17c1.53-.46,3.09-.53,5.05-.21v151.77Z"/>
                <path class="cls-4" d="M699.4,481.41c-1.15.26-2.51.24-4.18-.03v-153.02c0-1,2.84-1.79,3.29-1.23s.97,1.74.97,2.95l-.09,151.33Z"/>
            </g>
        </g>
    </g>

    <!-- FRONT COVER GROUP -->
    <g id="front-cover">

        <g transform="translate(2073.85,39)">
            <defs>
                <linearGradient id="bg" x1="0%" y1="0%" x2="0%" y2="100%">
                    <stop offset="0%" stop-color="#18002F"/>
                    <stop offset="52%" stop-color="#3E006D"/>
                    <stop offset="100%" stop-color="#7D32E8"/>
                </linearGradient>

                <radialGradient id="haloMain" cx="50%" cy="58%" r="52%">
                    <stop offset="0%" stop-color="#E7CBFF" stop-opacity="0.42"/>
                    <stop offset="40%" stop-color="#C68DFF" stop-opacity="0.18"/>
                    <stop offset="100%" stop-color="#2B004D" stop-opacity="0"/>
                </radialGradient>

                <radialGradient id="haloCore" cx="50%" cy="50%" r="45%">
                    <stop offset="0%" stop-color="#FFF4DD" stop-opacity="0.95"/>
                    <stop offset="35%" stop-color="#FFDFA6" stop-opacity="0.55"/>
                    <stop offset="100%" stop-color="#FFDFA6" stop-opacity="0"/>
                </radialGradient>

                <linearGradient id="hexStroke" x1="0%" y1="0%" x2="100%" y2="100%">
                    <stop offset="0%" stop-color="#F2E5FF"/>
                    <stop offset="58%" stop-color="#CFA9FF"/>
                    <stop offset="100%" stop-color="#FFD8A0"/>
                </linearGradient>

                <linearGradient id="hexStrokeSoft" x1="0%" y1="0%" x2="100%" y2="100%">
                    <stop offset="0%" stop-color="#DABEFF" stop-opacity="0.55"/>
                    <stop offset="100%" stop-color="#FFC980" stop-opacity="0.35"/>
                </linearGradient>

                <radialGradient id="innerFill" cx="50%" cy="42%" r="65%">
                    <stop offset="0%" stop-color="#FFF4DE" stop-opacity="0.92"/>
                    <stop offset="60%" stop-color="#D6B3FF" stop-opacity="0.28"/>
                    <stop offset="100%" stop-color="#4B0082" stop-opacity="0.08"/>
                </radialGradient>

                <filter id="softGlow" x="-60%" y="-60%" width="220%" height="220%">
                    <feGaussianBlur stdDeviation="12" result="blur"/>
                    <feMerge>
                        <feMergeNode in="blur"/>
                        <feMergeNode in="SourceGraphic"/>
                    </feMerge>
                </filter>

                <filter id="tightGlow" x="-50%" y="-50%" width="200%" height="200%">
                    <feGaussianBlur stdDeviation="5" result="blur"/>
                    <feMerge>
                        <feMergeNode in="blur"/>
                        <feMergeNode in="SourceGraphic"/>
                    </feMerge>
                </filter>

                <filter id="shadowGlow" x="-50%" y="-50%" width="200%" height="200%">
                    <feGaussianBlur in="SourceAlpha" stdDeviation="24" result="blur"/>
                    <feOffset in="blur" dx="0" dy="18" result="offsetBlur"/>
                    <feFlood flood-color="#0B0018" flood-opacity="0.34" result="flood"/>
                    <feComposite in="flood" in2="offsetBlur" operator="in" result="shadow"/>
                    <feMerge>
                        <feMergeNode in="shadow"/>
                        <feMergeNode in="SourceGraphic"/>
                    </feMerge>
                </filter>

                <style>
                    .series {
                    font-family: IBM Plex Sans, Arial, sans-serif;
                    font-size: 42px;
                    font-weight: 600;
                    letter-spacing: 5px;
                    fill: #dfe9f8;
                    opacity: 1.00;
                    }
                    .title {
                    font-family: IBM Plex Sans, Arial, sans-serif;
                    font-size: 156px;
                    font-weight: 800;
                    letter-spacing: 0.4px;
                    fill: #ffffff;
                    }
                    .subtitle {
                    font-family: IBM Plex Sans, Arial, sans-serif;
                    font-size: 72px;
                    font-weight: 400;
                    letter-spacing: 0.35px;
                    fill: #ffffff;
                    }
                    .author {
                    font-family: IBM Plex Sans, Arial, sans-serif;
                    font-size: 62px;
                    font-weight: 500;
                    fill: #d6e0ef;
                    }
                    .mesh {
                    stroke: #D7BEFF;
                    stroke-opacity: 0.2;
                    stroke-width: 2;
                    }
                </style>
            </defs>
            <g transform="translate(0 250)">
                <ellipse cx="900" cy="1580" rx="620" ry="610" fill="url(#haloMain)"/>

                <!-- subtle field lines to imply emergence / structure -->
                <g opacity="0.55">
                    <path d="M520 1510 C680 1370, 1120 1370, 1280 1510" class="mesh" fill="none"/>
                    <path d="M560 1660 C710 1540, 1090 1540, 1240 1660" class="mesh" fill="none"/>
                    <path d="M610 1810 C740 1715, 1060 1715, 1190 1810" class="mesh" fill="none"/>
                </g>


                <g transform="translate(0 120)" filter="url(#shadowGlow)">
                    <!-- outer emergence layers -->
                    <polygon points="900,940 1323.5,1185 1323.5,1675 900,1920 476.5,1675 476.5,1185"
                             fill="none"
                             stroke="url(#hexStrokeSoft)"
                             stroke-width="8"
                             stroke-linejoin="round"
                             opacity="0.55"/>

                    <polygon points="900,985 1285.5,1208 1285.5,1652 900,1875 514.5,1652 514.5,1208"
                             fill="none"
                             stroke="url(#hexStrokeSoft)"
                             stroke-width="10"
                             stroke-linejoin="round"
                             opacity="0.68"/>

                    <!-- main structure -->
                    <g filter="url(#softGlow)">
                        <polygon points="900,1035 1263.7,1245 1263.7,1665 900,1875 536.3,1665 536.3,1245"
                                 fill="none"
                                 stroke="url(#hexStroke)"
                                 stroke-width="18"
                                 stroke-linejoin="round"
                                 opacity="0.96"/>

                        <polygon points="900,1182 1128.7,1314 1128.7,1578 900,1710 671.3,1578 671.3,1314"
                                 fill="url(#innerFill)"
                                 stroke="url(#hexStroke)"
                                 stroke-width="12"
                                 stroke-linejoin="round"
                                 opacity="0.98"/>

                        <!-- subtle inner connectors -->
                        <line x1="900" y1="1182" x2="900" y2="1710" stroke="#E9D7FF" stroke-opacity="0.3" stroke-width="2"/>
                        <line x1="671.3" y1="1314" x2="1128.7" y2="1578" stroke="#E9D7FF" stroke-opacity="0.18" stroke-width="2"/>
                        <line x1="1128.7" y1="1314" x2="671.3" y2="1578" stroke="#E9D7FF" stroke-opacity="0.18" stroke-width="2"/>
                    </g>

                    <!-- core ignition -->
                    <g filter="url(#tightGlow)">
                        <ellipse cx="900" cy="1448" rx="158" ry="158" fill="url(#haloCore)" opacity="0.88"/>
                        <polygon points="900,1328 1007.4,1390 1007.4,1514 900,1576 792.6,1514 792.6,1390"
                                 fill="#FFF2D4"
                                 stroke="#FFE2A6"
                                 stroke-width="6"
                                 stroke-linejoin="round"
                                 opacity="0.96"/>
                        <polygon points="900,1372 969.3,1412 969.3,1492 900,1532 830.7,1492 830.7,1412"
                                 fill="#FFFFFF"
                                 fill-opacity="0.6"
                                 stroke="#FFF3D1"
                                 stroke-opacity="0.8"
                                 stroke-width="2.5"
                                 stroke-linejoin="round"/>
                    </g>
                </g>
            </g>
        </g>

        <g id="front-text-overlay">
            <!-- Series -->
            <text x="2978.7" y="340" text-anchor="middle" class="series"
                  style="font-size:40px; opacity:0.75;">
                THE AI-AUGMENTED SERIES
            </text>

            <!-- Title -->
            <text x="2978.7" y="720" text-anchor="middle" class="title">
                <tspan x="2978.7" dy="0">Becoming</tspan>
                <tspan x="2978.7" dy="160">AI-Augmented</tspan>
            </text>

            <!-- Subtitle -->
            <text x="2978.7" y="1200" text-anchor="middle" class="subtitle">
                <tspan x="2978.7" dy="0">Expanding Human Capability</tspan>
                <tspan x="2978.7" dy="74">in the Age of AI</tspan>
            </text>

            <!-- Author -->
            <text x="2978.7" y="2540" text-anchor="middle" class="author">
                Dr. Darren Pulsipher
            </text>
        </g>
    </g>

    <!-- Guides -->
    <!--   <line x1="37.5" y1="0" x2="37.5" y2="2775.0" class="guide"/>
       <line x1="1837.5" y1="0" x2="1837.5" y2="2775.0" class="guide"/>
       <line x1="2078.7" y1="0" x2="2078.7" y2="2775.0" class="guide"/>
       <line x1="3878.7" y1="0" x2="3878.7" y2="2775.0" class="guide"/>
       <line x1="0" y1="37.5" x2="3916.2" y2="37.5" class="guide"/>
       <line x1="0" y1="2737.5" x2="3916.2" y2="2737.5" class="guide"/>-->
</svg>
