<?xml version="1.0" encoding="UTF-8"?>
<svg xmlns="http://www.w3.org/2000/svg" version="1.1" viewBox="0 0 750 750">
    <defs>
        <linearGradient id="grad1" gradientTransform="rotate(90)">
            <stop offset="5%" stop-color="#66B6DD" />
            <stop offset="95%"  stop-color="#3B76B3" />
        </linearGradient>
        <linearGradient id="grad2" gradientTransform="rotate(90)">
            <stop offset="5%"  stop-color="#3B76B3" />
            <stop offset="95%" stop-color="#66B6DD" />
        </linearGradient>
        <!-- New dark-blue gradient -->
        <linearGradient id="grad-navy" x1="0%" y1="0%" x2="0%" y2="100%">
            <stop offset="0%"  stop-color="#002137"/>  <!-- very dark at top -->
            <stop offset="100%" stop-color="#335A8C"/>  <!-- lighter slate-blue at bottom -->
        </linearGradient>
        <style>
            .cls-1 {
            stroke: #003456;
            stroke-linecap: round;
            stroke-linejoin: round;
            stroke-width: 5px;
            }
            .cls-4 { fill: url(#grad-navy); }
        </style>
    </defs>
    <!-- Generator: Adobe Illustrator 28.6.0, SVG Export Plug-In . SVG Version: 1.2.0 Build 709)  -->
    <g transform="translate(50,0)">
        <g id="Layer_1">
            <polygon class="st0" points="320 105 545 230 545 480 320 605 95 480 95 230 320 105"/>
        </g>
    </g>
    <defs>
        <style>
            .st0 {
            fill: #fff;
            }
        </style>
    </defs>
    <g transform="translate(-154,-40)">
    <path class="cls-4" d="M523.63,500.49c-35.39-31.46-83.54-38.2-129.38-35.33l-.09-176.23c36.57-3.03,71.56-.1,104.15,16.72,9.7,5.01,18.26,10.37,25.29,18.62l.02,176.22Z"/>
    <path class="cls-4" d="M582.48,472.64c-18.08,6.14-33.56,14.47-48.27,27.59l.06-176.47c8.04-8.31,16.44-14.13,26.45-19.04,32.25-15.82,66.22-18.73,102.8-15.89v176.05s-42.12.11-42.12.11c-13.22,1.68-25.64,3.82-38.92,7.65Z"/>
    <path class="cls-4" d="M516.03,508.19c-3.66.24-7.58-1.48-11.3-3.2-39.91-20.5-87.83-26.01-132.73-25.03l-.09-169.56,11.66-.67.02,164.51c24.85-.67,48.29.62,71.98,5.4,22.02,5.03,42.53,13.05,60.46,28.55Z"/>
    <path class="cls-4" d="M557.08,502.55c-5.74,3.27-11.33,5.4-16.92,6.27,11.7-10.36,24.05-17.87,38.2-23.24,31.53-11.32,61.91-11.6,95.63-11.42l-.04-163.61c3.5-.85,7.07-.75,11.2-.04l.04,169.41c-42.16-1.12-90.17,3.36-128.12,22.61Z"/>
    <path class="cls-4" d="M694.79,488.95l-42.37,6.57c-29.33,4.54-57.68,9.1-86.22,16.53-10.69,2.78-19.44,7.69-28.43,13.63-7.09,4.68-16.17,2.01-22.85-2.34s-13.25-7.94-21.08-10.06c-25.26-6.83-50.26-11.82-76.21-15.84l-48.6-7.54c-3.16-.49-6.72.42-8.45-3.81,39.21-1.5,77.45,5.18,115.15,16.2,11.58,3.38,21.96,8.75,33.9,10.08,10.68,1.19,21.55.27,32.38.43,7.86.12,14.32-2.53,21.43-5.18,33.41-12.46,67.22-18.92,102.79-21.17,7.69-.49,24.28-.98,30.79.13.51.09-1.63,2.28-2.23,2.37Z"/>
    <path class="cls-4" d="M361.74,479.28c0,2.29-1.33,3.86-2.28,3.79-1.41-.1-2.69-1.4-2.69-3.17l-.06-152.17c1.53-.46,3.09-.53,5.05-.21v151.77Z"/>
    <path class="cls-4" d="M699.4,481.41c-1.15.26-2.51.24-4.18-.03v-153.02c0-1,2.84-1.79,3.29-1.23s.97,1.74.97,2.95l-.09,151.33Z"/>
    </g>
</svg>
