<svg xmlns="http://www.w3.org/2000/svg" width="1600" height="1600" viewBox="0 0 1600 1600">
  <defs>
    <radialGradient id="bg" cx="50%" cy="50%" r="75%">
      <stop offset="0%" stop-color="#083a25"/>
      <stop offset="35%" stop-color="#062e1f"/>
      <stop offset="100%" stop-color="#03110d"/>
    </radialGradient>
    <radialGradient id="centerGlow" cx="50%" cy="50%" r="60%">
      <stop offset="0%" stop-color="#d7ff66" stop-opacity="0.75"/>
      <stop offset="35%" stop-color="#73ff5a" stop-opacity="0.32"/>
      <stop offset="100%" stop-color="#73ff5a" stop-opacity="0"/>
    </radialGradient>
    <filter id="glowSmall" x="-50%" y="-50%" width="200%" height="200%">
      <feGaussianBlur stdDeviation="3" result="b"/>
      <feMerge><feMergeNode in="b"/><feMergeNode in="SourceGraphic"/></feMerge>
    </filter>
    <filter id="glowMed" x="-60%" y="-60%" width="220%" height="220%">
      <feGaussianBlur stdDeviation="8" result="b"/>
      <feMerge><feMergeNode in="b"/><feMergeNode in="SourceGraphic"/></feMerge>
    </filter>
    <filter id="glowBig" x="-80%" y="-80%" width="260%" height="260%">
      <feGaussianBlur stdDeviation="22" result="b"/>
      <feMerge><feMergeNode in="b"/><feMergeNode in="SourceGraphic"/></feMerge>
    </filter>
    <linearGradient id="lineGrad" x1="0" y1="0" x2="1" y2="1">
      <stop offset="0%" stop-color="#96ff73" stop-opacity="0.2"/>
      <stop offset="60%" stop-color="#eaff8b" stop-opacity="0.95"/>
      <stop offset="100%" stop-color="#d6ff60" stop-opacity="1"/>
    </linearGradient>
    <linearGradient id="hexStroke" x1="0" y1="0" x2="1" y2="1">
      <stop offset="0%" stop-color="#c6ff8a"/>
      <stop offset="100%" stop-color="#65ff4c"/>
    </linearGradient>
    <marker id="arrow" viewBox="0 0 10 10" refX="8.5" refY="5" markerWidth="7" markerHeight="7" orient="auto-start-reverse">
      <path d="M 0 0 L 10 5 L 0 10 z" fill="#eaff8b" filter="url(#glowSmall)"/>
    </marker>
  </defs>
  <rect width="100%" height="100%" fill="url(#bg)"/>
  <g opacity="0.22">
<polygon points="290.0,594.0 312.5,607.0 312.5,633.0 290.0,646.0 267.5,633.0 267.5,607.0" fill="none" stroke="#1e7a55" stroke-width="1.5" opacity="0.35"/>
<polygon points="1260.0,590.0 1286.0,605.0 1286.0,635.0 1260.0,650.0 1234.0,635.0 1234.0,605.0" fill="none" stroke="#1e7a55" stroke-width="1.5" opacity="0.35"/>
<polygon points="210.0,836.0 230.8,848.0 230.8,872.0 210.0,884.0 189.2,872.0 189.2,848.0" fill="none" stroke="#1e7a55" stroke-width="1.5" opacity="0.35"/>
<polygon points="1180.0,1152.0 1204.2,1166.0 1204.2,1194.0 1180.0,1208.0 1155.8,1194.0 1155.8,1166.0" fill="none" stroke="#1e7a55" stroke-width="1.5" opacity="0.35"/>
<polygon points="520.0,202.0 535.6,211.0 535.6,229.0 520.0,238.0 504.4,229.0 504.4,211.0" fill="none" stroke="#1e7a55" stroke-width="1.5" opacity="0.35"/>
<polygon points="1320.0,340.0 1337.3,350.0 1337.3,370.0 1320.0,380.0 1302.7,370.0 1302.7,350.0" fill="none" stroke="#1e7a55" stroke-width="1.5" opacity="0.35"/>
<polygon points="320.0,1298.0 339.1,1309.0 339.1,1331.0 320.0,1342.0 300.9,1331.0 300.9,1309.0" fill="none" stroke="#1e7a55" stroke-width="1.5" opacity="0.35"/>
<polygon points="930.0,172.0 945.6,181.0 945.6,199.0 930.0,208.0 914.4,199.0 914.4,181.0" fill="none" stroke="#1e7a55" stroke-width="1.5" opacity="0.35"/>
</g>
<circle cx="800" cy="800" r="360" fill="url(#centerGlow)" filter="url(#glowBig)"/>
<g opacity="0.25">
<line x1="941.0" y1="851.3" x2="1288.6" y2="977.9" stroke="#2da46f" stroke-width="1.2"/>
<line x1="863.4" y1="935.9" x2="1019.8" y2="1271.3" stroke="#2da46f" stroke-width="1.2"/>
<line x1="748.7" y1="941.0" x2="622.1" y2="1288.6" stroke="#2da46f" stroke-width="1.2"/>
<line x1="664.1" y1="863.4" x2="328.7" y2="1019.8" stroke="#2da46f" stroke-width="1.2"/>
<line x1="664.1" y1="736.6" x2="328.7" y2="580.2" stroke="#2da46f" stroke-width="1.2"/>
<line x1="748.7" y1="659.0" x2="622.1" y2="311.4" stroke="#2da46f" stroke-width="1.2"/>
<line x1="875.0" y1="670.1" x2="1060.0" y2="349.7" stroke="#2da46f" stroke-width="1.2"/>
<line x1="935.9" y1="736.6" x2="1271.3" y2="580.2" stroke="#2da46f" stroke-width="1.2"/>
</g>
<path d="M 70.0,420.0 L 170.0,420.0 L 250.0,500.0 L 400.0,500.0 L 520.0,560.0 L 650.0,650.0" fill="none" stroke="url(#lineGrad)" stroke-width="2.5" stroke-linecap="round" stroke-linejoin="round" filter="url(#glowSmall)" stroke-dasharray="10 10"/>
<path d="M 520.0,560.0 L 650.0,650.0" fill="none" stroke="#efff9f" stroke-width="2.7" marker-end="url(#arrow)" filter="url(#glowSmall)"/>
<circle cx="170.0" cy="420.0" r="4" fill="#f0ffab" filter="url(#glowSmall)"/>
<circle cx="400.0" cy="500.0" r="4" fill="#f0ffab" filter="url(#glowSmall)"/>
<path d="M 200.0,250.0 L 300.0,250.0 L 380.0,380.0 L 540.0,380.0 L 690.0,610.0" fill="none" stroke="url(#lineGrad)" stroke-width="2.5" stroke-linecap="round" stroke-linejoin="round" filter="url(#glowSmall)"/>
<path d="M 540.0,380.0 L 690.0,610.0" fill="none" stroke="#efff9f" stroke-width="2.7" marker-end="url(#arrow)" filter="url(#glowSmall)"/>
<circle cx="300.0" cy="250.0" r="4" fill="#f0ffab" filter="url(#glowSmall)"/>
<circle cx="540.0" cy="380.0" r="4" fill="#f0ffab" filter="url(#glowSmall)"/>
<path d="M 1050.0,150.0 L 1050.0,260.0 L 980.0,340.0 L 900.0,340.0 L 860.0,430.0 L 845.0,610.0" fill="none" stroke="url(#lineGrad)" stroke-width="2.5" stroke-linecap="round" stroke-linejoin="round" filter="url(#glowSmall)"/>
<path d="M 860.0,430.0 L 845.0,610.0" fill="none" stroke="#efff9f" stroke-width="2.7" marker-end="url(#arrow)" filter="url(#glowSmall)"/>
<circle cx="1050.0" cy="260.0" r="4" fill="#f0ffab" filter="url(#glowSmall)"/>
<circle cx="900.0" cy="340.0" r="4" fill="#f0ffab" filter="url(#glowSmall)"/>
<path d="M 1370.0,220.0 L 1270.0,220.0 L 1190.0,320.0 L 1120.0,320.0 L 1060.0,430.0 L 935.0,615.0" fill="none" stroke="url(#lineGrad)" stroke-width="2.5" stroke-linecap="round" stroke-linejoin="round" filter="url(#glowSmall)"/>
<path d="M 1060.0,430.0 L 935.0,615.0" fill="none" stroke="#efff9f" stroke-width="2.7" marker-end="url(#arrow)" filter="url(#glowSmall)"/>
<circle cx="1270.0" cy="220.0" r="4" fill="#f0ffab" filter="url(#glowSmall)"/>
<circle cx="1120.0" cy="320.0" r="4" fill="#f0ffab" filter="url(#glowSmall)"/>
<path d="M 1440.0,720.0 L 1320.0,720.0 L 1230.0,800.0 L 1100.0,800.0 L 1010.0,780.0 L 950.0,780.0" fill="none" stroke="url(#lineGrad)" stroke-width="2.5" stroke-linecap="round" stroke-linejoin="round" filter="url(#glowSmall)" stroke-dasharray="10 10"/>
<path d="M 1010.0,780.0 L 950.0,780.0" fill="none" stroke="#efff9f" stroke-width="2.7" marker-end="url(#arrow)" filter="url(#glowSmall)"/>
<circle cx="1320.0" cy="720.0" r="4" fill="#f0ffab" filter="url(#glowSmall)"/>
<circle cx="1100.0" cy="800.0" r="4" fill="#f0ffab" filter="url(#glowSmall)"/>
<path d="M 1400.0,1120.0 L 1280.0,1020.0 L 1200.0,930.0 L 1090.0,930.0 L 1000.0,880.0 L 940.0,860.0" fill="none" stroke="url(#lineGrad)" stroke-width="2.5" stroke-linecap="round" stroke-linejoin="round" filter="url(#glowSmall)"/>
<path d="M 1000.0,880.0 L 940.0,860.0" fill="none" stroke="#efff9f" stroke-width="2.7" marker-end="url(#arrow)" filter="url(#glowSmall)"/>
<circle cx="1280.0" cy="1020.0" r="4" fill="#f0ffab" filter="url(#glowSmall)"/>
<circle cx="1090.0" cy="930.0" r="4" fill="#f0ffab" filter="url(#glowSmall)"/>
<path d="M 1040.0,1460.0 L 1040.0,1320.0 L 960.0,1220.0 L 960.0,1090.0 L 900.0,980.0 L 860.0,930.0" fill="none" stroke="url(#lineGrad)" stroke-width="2.5" stroke-linecap="round" stroke-linejoin="round" filter="url(#glowSmall)"/>
<path d="M 900.0,980.0 L 860.0,930.0" fill="none" stroke="#efff9f" stroke-width="2.7" marker-end="url(#arrow)" filter="url(#glowSmall)"/>
<circle cx="1040.0" cy="1320.0" r="4" fill="#f0ffab" filter="url(#glowSmall)"/>
<circle cx="960.0" cy="1090.0" r="4" fill="#f0ffab" filter="url(#glowSmall)"/>
<path d="M 420.0,1410.0 L 520.0,1320.0 L 610.0,1220.0 L 610.0,1080.0 L 690.0,980.0 L 740.0,930.0" fill="none" stroke="url(#lineGrad)" stroke-width="2.5" stroke-linecap="round" stroke-linejoin="round" filter="url(#glowSmall)" stroke-dasharray="10 10"/>
<path d="M 690.0,980.0 L 740.0,930.0" fill="none" stroke="#efff9f" stroke-width="2.7" marker-end="url(#arrow)" filter="url(#glowSmall)"/>
<circle cx="520.0" cy="1320.0" r="4" fill="#f0ffab" filter="url(#glowSmall)"/>
<circle cx="610.0" cy="1080.0" r="4" fill="#f0ffab" filter="url(#glowSmall)"/>
<path d="M 120.0,1080.0 L 220.0,1080.0 L 300.0,990.0 L 430.0,990.0 L 560.0,930.0 L 665.0,875.0" fill="none" stroke="url(#lineGrad)" stroke-width="2.5" stroke-linecap="round" stroke-linejoin="round" filter="url(#glowSmall)"/>
<path d="M 560.0,930.0 L 665.0,875.0" fill="none" stroke="#efff9f" stroke-width="2.7" marker-end="url(#arrow)" filter="url(#glowSmall)"/>
<circle cx="220.0" cy="1080.0" r="4" fill="#f0ffab" filter="url(#glowSmall)"/>
<circle cx="430.0" cy="990.0" r="4" fill="#f0ffab" filter="url(#glowSmall)"/>
<g opacity="0.9">
<polygon points="150.0,365.0 197.6,392.5 197.6,447.5 150.0,475.0 102.4,447.5 102.4,392.5" fill="none" stroke="#cfff74" stroke-width="2.2" opacity="0.75" filter="url(#glowSmall)"/>
<polygon points="230.0,208.0 266.4,229.0 266.4,271.0 230.0,292.0 193.6,271.0 193.6,229.0" fill="none" stroke="#cfff74" stroke-width="2.2" opacity="0.75" filter="url(#glowSmall)"/>
<polygon points="1050.0,98.0 1095.0,124.0 1095.0,176.0 1050.0,202.0 1005.0,176.0 1005.0,124.0" fill="none" stroke="#cfff74" stroke-width="2.2" opacity="0.75" filter="url(#glowSmall)"/>
<polygon points="1370.0,175.0 1409.0,197.5 1409.0,242.5 1370.0,265.0 1331.0,242.5 1331.0,197.5" fill="none" stroke="#cfff74" stroke-width="2.2" opacity="0.75" filter="url(#glowSmall)"/>
<polygon points="1440.0,670.0 1483.3,695.0 1483.3,745.0 1440.0,770.0 1396.7,745.0 1396.7,695.0" fill="none" stroke="#cfff74" stroke-width="2.2" opacity="0.75" filter="url(#glowSmall)"/>
<polygon points="1400.0,1072.0 1441.6,1096.0 1441.6,1144.0 1400.0,1168.0 1358.4,1144.0 1358.4,1096.0" fill="none" stroke="#cfff74" stroke-width="2.2" opacity="0.75" filter="url(#glowSmall)"/>
<polygon points="1040.0,1418.0 1076.4,1439.0 1076.4,1481.0 1040.0,1502.0 1003.6,1481.0 1003.6,1439.0" fill="none" stroke="#cfff74" stroke-width="2.2" opacity="0.75" filter="url(#glowSmall)"/>
<polygon points="420.0,1352.0 470.2,1381.0 470.2,1439.0 420.0,1468.0 369.8,1439.0 369.8,1381.0" fill="none" stroke="#cfff74" stroke-width="2.2" opacity="0.75" filter="url(#glowSmall)"/>
<polygon points="120.0,1032.0 161.6,1056.0 161.6,1104.0 120.0,1128.0 78.4,1104.0 78.4,1056.0" fill="none" stroke="#cfff74" stroke-width="2.2" opacity="0.75" filter="url(#glowSmall)"/>
</g>
<polygon points="800.0,540.0 1025.2,670.0 1025.2,930.0 800.0,1060.0 574.8,930.0 574.8,670.0" fill="#0a2f21" fill-opacity="0.14" stroke="#1fc96d" stroke-opacity="0.18" stroke-width="2"/>
<polygon points="800.0,590.0 981.9,695.0 981.9,905.0 800.0,1010.0 618.1,905.0 618.1,695.0" fill="#0a2f21" fill-opacity="0.14" stroke="#1fc96d" stroke-opacity="0.28" stroke-width="2.5"/>
<polygon points="800.0,650.0 929.9,725.0 929.9,875.0 800.0,950.0 670.1,875.0 670.1,725.0" fill="#0b2a1d" stroke="url(#hexStroke)" stroke-width="8" filter="url(#glowMed)"/>
<polygon points="800.0,635.0 942.9,717.5 942.9,882.5 800.0,965.0 657.1,882.5 657.1,717.5" fill="none" stroke="#9fff74" stroke-opacity="0.35" stroke-width="3" filter="url(#glowMed)"/>
<polygon points="800.0,665.0 916.9,732.5 916.9,867.5 800.0,935.0 683.1,867.5 683.1,732.5" fill="#08311f" stroke="#dfff95" stroke-opacity="0.85" stroke-width="2.2"/>
<polygon points="824.0,788.0 834.4,794.0 834.4,806.0 824.0,812.0 813.6,806.0 813.6,794.0" fill="none" stroke="#1d6f4b" stroke-width="1" opacity="0.18"/>
<polygon points="812.0,808.8 822.4,814.8 822.4,826.8 812.0,832.8 801.6,826.8 801.6,814.8" fill="none" stroke="#1d6f4b" stroke-width="1" opacity="0.18"/>
<polygon points="788.0,808.8 798.4,814.8 798.4,826.8 788.0,832.8 777.6,826.8 777.6,814.8" fill="none" stroke="#1d6f4b" stroke-width="1" opacity="0.18"/>
<polygon points="776.0,788.0 786.4,794.0 786.4,806.0 776.0,812.0 765.6,806.0 765.6,794.0" fill="none" stroke="#1d6f4b" stroke-width="1" opacity="0.18"/>
<polygon points="788.0,767.2 798.4,773.2 798.4,785.2 788.0,791.2 777.6,785.2 777.6,773.2" fill="none" stroke="#1d6f4b" stroke-width="1" opacity="0.18"/>
<polygon points="812.0,767.2 822.4,773.2 822.4,785.2 812.0,791.2 801.6,785.2 801.6,773.2" fill="none" stroke="#1d6f4b" stroke-width="1" opacity="0.18"/>
<polygon points="844.0,788.0 854.4,794.0 854.4,806.0 844.0,812.0 833.6,806.0 833.6,794.0" fill="none" stroke="#1d6f4b" stroke-width="1" opacity="0.18"/>
<polygon points="822.0,826.1 832.4,832.1 832.4,844.1 822.0,850.1 811.6,844.1 811.6,832.1" fill="none" stroke="#1d6f4b" stroke-width="1" opacity="0.18"/>
<polygon points="778.0,826.1 788.4,832.1 788.4,844.1 778.0,850.1 767.6,844.1 767.6,832.1" fill="none" stroke="#1d6f4b" stroke-width="1" opacity="0.18"/>
<polygon points="756.0,788.0 766.4,794.0 766.4,806.0 756.0,812.0 745.6,806.0 745.6,794.0" fill="none" stroke="#1d6f4b" stroke-width="1" opacity="0.18"/>
<polygon points="778.0,749.9 788.4,755.9 788.4,767.9 778.0,773.9 767.6,767.9 767.6,755.9" fill="none" stroke="#1d6f4b" stroke-width="1" opacity="0.18"/>
<polygon points="822.0,749.9 832.4,755.9 832.4,767.9 822.0,773.9 811.6,767.9 811.6,755.9" fill="none" stroke="#1d6f4b" stroke-width="1" opacity="0.18"/>
<polygon points="864.0,788.0 874.4,794.0 874.4,806.0 864.0,812.0 853.6,806.0 853.6,794.0" fill="none" stroke="#1d6f4b" stroke-width="1" opacity="0.18"/>
<polygon points="832.0,843.4 842.4,849.4 842.4,861.4 832.0,867.4 821.6,861.4 821.6,849.4" fill="none" stroke="#1d6f4b" stroke-width="1" opacity="0.18"/>
<polygon points="768.0,843.4 778.4,849.4 778.4,861.4 768.0,867.4 757.6,861.4 757.6,849.4" fill="none" stroke="#1d6f4b" stroke-width="1" opacity="0.18"/>
<polygon points="736.0,788.0 746.4,794.0 746.4,806.0 736.0,812.0 725.6,806.0 725.6,794.0" fill="none" stroke="#1d6f4b" stroke-width="1" opacity="0.18"/>
<polygon points="768.0,732.6 778.4,738.6 778.4,750.6 768.0,756.6 757.6,750.6 757.6,738.6" fill="none" stroke="#1d6f4b" stroke-width="1" opacity="0.18"/>
<polygon points="832.0,732.6 842.4,738.6 842.4,750.6 832.0,756.6 821.6,750.6 821.6,738.6" fill="none" stroke="#1d6f4b" stroke-width="1" opacity="0.18"/>
<polygon points="884.0,788.0 894.4,794.0 894.4,806.0 884.0,812.0 873.6,806.0 873.6,794.0" fill="none" stroke="#1d6f4b" stroke-width="1" opacity="0.18"/>
<polygon points="842.0,860.7 852.4,866.7 852.4,878.7 842.0,884.7 831.6,878.7 831.6,866.7" fill="none" stroke="#1d6f4b" stroke-width="1" opacity="0.18"/>
<polygon points="758.0,860.7 768.4,866.7 768.4,878.7 758.0,884.7 747.6,878.7 747.6,866.7" fill="none" stroke="#1d6f4b" stroke-width="1" opacity="0.18"/>
<polygon points="716.0,788.0 726.4,794.0 726.4,806.0 716.0,812.0 705.6,806.0 705.6,794.0" fill="none" stroke="#1d6f4b" stroke-width="1" opacity="0.18"/>
<polygon points="758.0,715.3 768.4,721.3 768.4,733.3 758.0,739.3 747.6,733.3 747.6,721.3" fill="none" stroke="#1d6f4b" stroke-width="1" opacity="0.18"/>
<polygon points="842.0,715.3 852.4,721.3 852.4,733.3 842.0,739.3 831.6,733.3 831.6,721.3" fill="none" stroke="#1d6f4b" stroke-width="1" opacity="0.18"/>
<polygon points="800.0,788.0 810.4,794.0 810.4,806.0 800.0,812.0 789.6,806.0 789.6,794.0" fill="none" stroke="#1d6f4b" stroke-width="1" opacity="0.18"/>
<polygon points="800.0,650.0 929.9,725.0 929.9,875.0 800.0,950.0 670.1,875.0 670.1,725.0" fill="none" stroke="#b8ff66" stroke-opacity="0.18" stroke-width="14" filter="url(#glowMed)"/>
<polygon points="800.0,650.0 929.9,725.0 929.9,875.0 800.0,950.0 670.1,875.0 670.1,725.0" fill="none" stroke="#b8ff66" stroke-opacity="0.35" stroke-width="8" filter="url(#glowMed)"/>
<polygon points="800.0,650.0 929.9,725.0 929.9,875.0 800.0,950.0 670.1,875.0 670.1,725.0" fill="none" stroke="#b8ff66" stroke-opacity="0.9" stroke-width="4" filter="url(#glowMed)"/>
</svg>